<svg xmlns="http://www.w3.org/2000/svg" width="96" height="96" viewBox="0 0 32 32" shape-rendering="crispEdges"><rect x="3" y="0" width="26" height="1" fill="#000000"/><rect x="2" y="1" width="1" height="1" fill="#000000"/><rect x="3" y="1" width="26" height="1" fill="#1d2a99"/><rect x="29" y="1" width="1" height="1" fill="#000000"/><rect x="1" y="2" width="1" height="1" fill="#000000"/><rect x="2" y="2" width="1" height="1" fill="#1d2a99"/><rect x="3" y="2" width="26" height="1" fill="#2b3fd8"/><rect x="29" y="2" width="1" height="1" fill="#1d2a99"/><rect x="30" y="2" width="1" height="1" fill="#000000"/><rect x="0" y="3" width="1" height="3" fill="#000000"/><rect x="1" y="3" width="1" height="3" fill="#1d2a99"/><rect x="2" y="3" width="28" height="3" fill="#2b3fd8"/><rect x="30" y="3" width="1" height="3" fill="#1d2a99"/><rect x="31" y="3" width="1" height="3" fill="#000000"/><rect x="0" y="6" width="1" height="2" fill="#000000"/><rect x="1" y="6" width="1" height="2" fill="#1d2a99"/><rect x="2" y="6" width="6" height="2" fill="#2b3fd8"/><rect x="8" y="6" width="12" height="2" fill="#ffffff"/><rect x="20" y="6" width="10" height="2" fill="#2b3fd8"/><rect x="30" y="6" width="1" height="2" fill="#1d2a99"/><rect x="31" y="6" width="1" height="2" fill="#000000"/><rect x="0" y="8" width="1" height="2" fill="#000000"/><rect x="1" y="8" width="1" height="2" fill="#1d2a99"/><rect x="2" y="8" width="6" height="2" fill="#2b3fd8"/><rect x="8" y="8" width="4" height="2" fill="#ffffff"/><rect x="12" y="8" width="6" height="2" fill="#1d2a99"/><rect x="18" y="8" width="4" height="2" fill="#ffffff"/><rect x="22" y="8" width="8" height="2" fill="#2b3fd8"/><rect x="30" y="8" width="1" height="2" fill="#1d2a99"/><rect x="31" y="8" width="1" height="2" fill="#000000"/><rect x="0" y="10" width="1" height="4" fill="#000000"/><rect x="1" y="10" width="1" height="4" fill="#1d2a99"/><rect x="2" y="10" width="6" height="4" fill="#2b3fd8"/><rect x="8" y="10" width="4" height="4" fill="#ffffff"/><rect x="12" y="10" width="2" height="4" fill="#1d2a99"/><rect x="14" y="10" width="4" height="4" fill="#2b3fd8"/><rect x="18" y="10" width="4" height="4" fill="#ffffff"/><rect x="22" y="10" width="2" height="4" fill="#1d2a99"/><rect x="24" y="10" width="6" height="4" fill="#2b3fd8"/><rect x="30" y="10" width="1" height="4" fill="#1d2a99"/><rect x="31" y="10" width="1" height="4" fill="#000000"/><rect x="0" y="14" width="1" height="2" fill="#000000"/><rect x="1" y="14" width="1" height="2" fill="#1d2a99"/><rect x="2" y="14" width="6" height="2" fill="#2b3fd8"/><rect x="8" y="14" width="12" height="2" fill="#ffffff"/><rect x="20" y="14" width="4" height="2" fill="#1d2a99"/><rect x="24" y="14" width="6" height="2" fill="#2b3fd8"/><rect x="30" y="14" width="1" height="2" fill="#1d2a99"/><rect x="31" y="14" width="1" height="2" fill="#000000"/><rect x="0" y="16" width="1" height="2" fill="#000000"/><rect x="1" y="16" width="1" height="2" fill="#1d2a99"/><rect x="2" y="16" width="6" height="2" fill="#2b3fd8"/><rect x="8" y="16" width="4" height="2" fill="#ffffff"/><rect x="12" y="16" width="2" height="2" fill="#1d2a99"/><rect x="14" y="16" width="4" height="2" fill="#ffffff"/><rect x="18" y="16" width="4" height="2" fill="#1d2a99"/><rect x="22" y="16" width="8" height="2" fill="#2b3fd8"/><rect x="30" y="16" width="1" height="2" fill="#1d2a99"/><rect x="31" y="16" width="1" height="2" fill="#000000"/><rect x="0" y="18" width="1" height="2" fill="#000000"/><rect x="1" y="18" width="1" height="2" fill="#1d2a99"/><rect x="2" y="18" width="6" height="2" fill="#2b3fd8"/><rect x="8" y="18" width="4" height="2" fill="#ffffff"/><rect x="12" y="18" width="2" height="2" fill="#1d2a99"/><rect x="14" y="18" width="2" height="2" fill="#2b3fd8"/><rect x="16" y="18" width="4" height="2" fill="#ffffff"/><rect x="20" y="18" width="10" height="2" fill="#2b3fd8"/><rect x="30" y="18" width="1" height="2" fill="#1d2a99"/><rect x="31" y="18" width="1" height="2" fill="#000000"/><rect x="0" y="20" width="1" height="2" fill="#000000"/><rect x="1" y="20" width="1" height="2" fill="#1d2a99"/><rect x="2" y="20" width="6" height="2" fill="#2b3fd8"/><rect x="8" y="20" width="4" height="2" fill="#ffffff"/><rect x="12" y="20" width="2" height="2" fill="#1d2a99"/><rect x="14" y="20" width="4" height="2" fill="#2b3fd8"/><rect x="18" y="20" width="4" height="2" fill="#ffffff"/><rect x="22" y="20" width="8" height="2" fill="#2b3fd8"/><rect x="30" y="20" width="1" height="2" fill="#1d2a99"/><rect x="31" y="20" width="1" height="2" fill="#000000"/><rect x="0" y="22" width="1" height="2" fill="#000000"/><rect x="1" y="22" width="1" height="2" fill="#1d2a99"/><rect x="2" y="22" width="6" height="2" fill="#2b3fd8"/><rect x="8" y="22" width="4" height="2" fill="#ffffff"/><rect x="12" y="22" width="2" height="2" fill="#1d2a99"/><rect x="14" y="22" width="4" height="2" fill="#2b3fd8"/><rect x="18" y="22" width="4" height="2" fill="#ffffff"/><rect x="22" y="22" width="2" height="2" fill="#1d2a99"/><rect x="24" y="22" width="6" height="2" fill="#2b3fd8"/><rect x="30" y="22" width="1" height="2" fill="#1d2a99"/><rect x="31" y="22" width="1" height="2" fill="#000000"/><rect x="0" y="24" width="1" height="2" fill="#000000"/><rect x="1" y="24" width="1" height="2" fill="#1d2a99"/><rect x="2" y="24" width="6" height="2" fill="#2b3fd8"/><rect x="8" y="24" width="4" height="2" fill="#ffffff"/><rect x="12" y="24" width="2" height="2" fill="#1d2a99"/><rect x="14" y="24" width="6" height="2" fill="#2b3fd8"/><rect x="20" y="24" width="4" height="2" fill="#ffffff"/><rect x="24" y="24" width="6" height="2" fill="#2b3fd8"/><rect x="30" y="24" width="1" height="2" fill="#1d2a99"/><rect x="31" y="24" width="1" height="2" fill="#000000"/><rect x="0" y="26" width="1" height="2" fill="#000000"/><rect x="1" y="26" width="1" height="2" fill="#1d2a99"/><rect x="2" y="26" width="8" height="2" fill="#2b3fd8"/><rect x="10" y="26" width="4" height="2" fill="#1d2a99"/><rect x="14" y="26" width="8" height="2" fill="#2b3fd8"/><rect x="22" y="26" width="4" height="2" fill="#1d2a99"/><rect x="26" y="26" width="4" height="2" fill="#2b3fd8"/><rect x="30" y="26" width="1" height="2" fill="#1d2a99"/><rect x="31" y="26" width="1" height="2" fill="#000000"/><rect x="0" y="28" width="1" height="1" fill="#000000"/><rect x="1" y="28" width="1" height="1" fill="#1d2a99"/><rect x="2" y="28" width="28" height="1" fill="#2b3fd8"/><rect x="30" y="28" width="1" height="1" fill="#1d2a99"/><rect x="31" y="28" width="1" height="1" fill="#000000"/><rect x="1" y="29" width="1" height="1" fill="#000000"/><rect x="2" y="29" width="1" height="1" fill="#1d2a99"/><rect x="3" y="29" width="26" height="1" fill="#2b3fd8"/><rect x="29" y="29" width="1" height="1" fill="#1d2a99"/><rect x="30" y="29" width="1" height="1" fill="#000000"/><rect x="2" y="30" width="1" height="1" fill="#000000"/><rect x="3" y="30" width="26" height="1" fill="#1d2a99"/><rect x="29" y="30" width="1" height="1" fill="#000000"/><rect x="3" y="31" width="26" height="1" fill="#000000"/></svg>